<?xml version="1.0" encoding="UTF-8"?>
<svg xmlns="http://www.w3.org/2000/svg" xmlns:xlink="http://www.w3.org/1999/xlink" width="192px" height="192px" viewBox="0 0 192 192" version="1.1">
<g id="surface1">
<path style=" stroke:none;fill-rule:evenodd;fill:rgb(100%,80%,0%);fill-opacity:1;" d="M 191.988281 95.996094 C 191.988281 149.011719 149.011719 191.988281 95.996094 191.988281 C 42.976562 191.988281 0 149.011719 0 95.996094 C 0 42.976562 42.976562 0 95.996094 0 C 149.011719 0 191.988281 42.976562 191.988281 95.996094 Z M 191.988281 95.996094 "/>
<path style=" stroke:none;fill-rule:nonzero;fill:rgb(0%,0%,0%);fill-opacity:1;" d="M 47.355469 175.300781 C 43.65625 173.699219 42.003906 169.019531 43.941406 165.628906 C 44.363281 164.894531 47.414062 161.230469 50.726562 157.488281 L 56.746094 150.683594 L 55.449219 147.71875 C 54.042969 144.503906 52.757812 140.359375 52.109375 136.945312 C 51.46875 133.566406 51.589844 123.8125 52.308594 120.457031 C 55.046875 107.730469 62.125 97.371094 72.863281 90.386719 C 88.449219 80.246094 109.253906 80.773438 124.476562 91.695312 C 125.804688 92.644531 126.953125 93.425781 127.03125 93.425781 C 127.109375 93.425781 127.167969 92.664062 127.167969 91.734375 L 127.164062 90.042969 L 124.675781 88.398438 C 119.878906 85.230469 113.230469 82.402344 108.460938 81.496094 C 107.332031 81.28125 106.3125 81.019531 106.1875 80.910156 C 105.753906 80.523438 104.609375 70.199219 104.835938 68.679688 C 105.476562 64.382812 108.222656 61.09375 112.226562 59.820312 C 113.414062 59.445312 125.523438 57.699219 126.957031 57.699219 C 127.074219 57.699219 127.171875 57.125 127.171875 56.421875 C 127.171875 55.335938 127.03125 55.070312 126.238281 54.660156 C 124.84375 53.9375 123.117188 51.746094 122.660156 50.117188 C 121.871094 47.300781 122.921875 44.074219 125.238281 42.214844 C 126.710938 41.03125 126.730469 40.964844 125.960938 40.011719 L 125.390625 39.3125 L 120.246094 40.757812 C 102.585938 45.726562 86.027344 49.109375 77.34375 49.515625 C 73.332031 49.707031 71.910156 49.480469 71.355469 48.566406 C 70.230469 46.707031 80.445312 41.351562 96.113281 35.589844 C 101.710938 33.53125 116.148438 28.734375 116.746094 28.734375 C 117.519531 28.734375 117.550781 28.089844 116.890625 25.738281 C 115.960938 22.433594 115.964844 22.421875 117.917969 21.847656 C 118.847656 21.578125 121.011719 20.933594 122.726562 20.417969 L 125.84375 19.476562 L 126.546875 22.140625 C 126.933594 23.601562 127.34375 24.949219 127.453125 25.132812 C 127.585938 25.347656 129.082031 25.074219 131.679688 24.355469 C 140.238281 22 152.265625 19.203125 159.835938 17.816406 C 169.148438 16.105469 176.730469 15.71875 177.898438 16.886719 C 178.410156 17.398438 178.410156 17.484375 177.890625 18.277344 C 175.769531 21.511719 159.625 28.484375 138.757812 35.183594 C 134.773438 36.460938 131.410156 37.566406 131.28125 37.640625 C 130.910156 37.855469 132.972656 41.347656 134.101562 42.414062 C 136.558594 44.734375 137.207031 48.292969 135.746094 51.425781 C 135.335938 52.308594 134.757812 53.230469 134.464844 53.476562 C 133.890625 53.949219 133.6875 56.734375 134.226562 56.734375 C 134.390625 56.734375 139.859375 56.070312 146.378906 55.261719 C 154.433594 54.257812 158.863281 53.839844 160.210938 53.957031 C 163.863281 54.273438 166.882812 56.289062 168.632812 59.578125 C 169.601562 61.394531 169.734375 62.078125 170.972656 71.75 C 171.851562 78.648438 172.21875 82.5625 172.085938 83.722656 C 171.632812 87.757812 168.507812 91.578125 164.726562 92.726562 C 163.597656 93.070312 156.507812 94.082031 148.332031 95.066406 L 133.929688 96.804688 L 133.929688 98.664062 C 133.929688 100.394531 134.054688 100.707031 135.722656 103.140625 C 139.175781 108.179688 141.648438 113.992188 143.003906 120.238281 C 144.019531 124.914062 144.015625 133.636719 142.996094 138.382812 C 142.195312 142.117188 140.726562 146.46875 139.355469 149.191406 C 138.792969 150.304688 138.515625 151.226562 138.667969 151.476562 C 138.804688 151.710938 141.378906 154.683594 144.390625 158.082031 C 147.398438 161.480469 150.222656 164.871094 150.664062 165.613281 C 152.273438 168.3125 151.398438 172.519531 148.84375 174.394531 C 146.660156 176 143.234375 176.214844 140.984375 174.886719 C 140.359375 174.519531 137.566406 171.613281 134.777344 168.429688 L 129.699219 162.640625 L 126.90625 164.90625 C 112.835938 176.3125 94.417969 178.582031 77.949219 170.941406 C 74.699219 169.4375 69.800781 166.21875 67.1875 163.871094 L 65.292969 162.171875 L 64.484375 163.117188 C 58.636719 169.988281 54.199219 174.664062 53.027344 175.199219 C 51.425781 175.925781 48.898438 175.96875 47.355469 175.300781 Z M 38.703125 100.605469 C 27.320312 99.179688 21.636719 98.335938 20.472656 97.898438 C 17.03125 96.609375 14.175781 92.910156 13.726562 89.152344 C 13.542969 87.613281 14.808594 75.679688 15.851562 69.125 C 16.511719 64.960938 18.542969 62.015625 21.980469 60.238281 C 24.601562 58.882812 26.738281 59.011719 50.734375 62 C 65.972656 63.898438 73.082031 64.90625 74.144531 65.324219 C 77.410156 66.613281 80.109375 69.867188 80.84375 73.402344 C 81.121094 74.738281 81.089844 75.960938 80.691406 79.050781 C 80.410156 81.21875 80.183594 83.082031 80.183594 83.195312 C 80.183594 83.304688 78.683594 84.113281 76.851562 84.988281 C 69.125 88.679688 62.015625 94.652344 57.605469 101.152344 C 56.886719 102.210938 56.3125 102.730469 55.882812 102.710938 C 55.53125 102.695312 47.796875 101.746094 38.703125 100.605469 Z M 38.703125 100.605469 "/>
</g>
</svg>
