<?xml version="1.0" encoding="UTF-8"?>
<svg xmlns="http://www.w3.org/2000/svg" xmlns:xlink="http://www.w3.org/1999/xlink" width="512px" height="512px" viewBox="0 0 512 512" version="1.1">
<g id="surface1">
<path style=" stroke:none;fill-rule:evenodd;fill:rgb(100%,80%,0%);fill-opacity:1;" d="M 511.972656 255.988281 C 511.972656 397.363281 397.363281 511.972656 255.988281 511.972656 C 114.609375 511.972656 0 397.363281 0 255.988281 C 0 114.609375 114.609375 0 255.988281 0 C 397.363281 0 511.972656 114.609375 511.972656 255.988281 Z M 511.972656 255.988281 "/>
<path style=" stroke:none;fill-rule:nonzero;fill:rgb(0%,0%,0%);fill-opacity:1;" d="M 126.28125 467.46875 C 116.414062 463.195312 112.011719 450.71875 117.179688 441.675781 C 118.300781 439.714844 126.441406 429.949219 135.269531 419.964844 L 151.324219 401.820312 L 147.867188 393.917969 C 144.113281 385.34375 140.6875 374.292969 138.960938 365.183594 C 137.253906 356.183594 137.566406 330.167969 139.492188 321.222656 C 146.789062 287.28125 165.667969 259.660156 194.304688 241.027344 C 235.867188 213.988281 291.347656 215.394531 331.9375 244.515625 C 335.476562 247.054688 338.539062 249.128906 338.746094 249.128906 C 338.953125 249.128906 339.121094 247.101562 339.113281 244.625 L 339.109375 240.121094 L 332.464844 235.730469 C 319.679688 227.285156 301.945312 219.734375 289.226562 217.320312 C 286.222656 216.753906 283.5 216.046875 283.171875 215.757812 C 282.003906 214.726562 278.960938 187.199219 279.566406 183.148438 C 281.273438 171.691406 288.589844 162.921875 299.265625 159.527344 C 302.433594 158.519531 334.730469 153.867188 338.554688 153.867188 C 338.867188 153.867188 339.121094 152.332031 339.121094 150.457031 C 339.121094 147.558594 338.746094 146.851562 336.632812 145.757812 C 332.914062 143.835938 328.308594 137.988281 327.09375 133.648438 C 324.988281 126.132812 327.792969 117.535156 333.96875 112.574219 C 337.890625 109.417969 337.949219 109.242188 335.890625 106.699219 L 334.378906 104.828125 L 320.660156 108.691406 C 273.566406 121.9375 229.402344 130.953125 206.246094 132.046875 C 195.550781 132.550781 191.761719 131.949219 190.285156 129.511719 C 187.277344 124.554688 214.519531 110.273438 256.304688 94.902344 C 271.230469 89.414062 309.726562 76.625 311.328125 76.625 C 313.382812 76.625 313.464844 74.910156 311.707031 68.636719 C 309.230469 59.820312 309.242188 59.789062 314.449219 58.265625 C 316.925781 57.539062 322.695312 55.820312 327.269531 54.441406 L 335.582031 51.9375 L 337.457031 59.035156 C 338.488281 62.941406 339.578125 66.535156 339.878906 67.019531 C 340.234375 67.59375 344.21875 66.863281 351.144531 64.953125 C 373.972656 58.664062 406.042969 51.210938 426.234375 47.507812 C 451.058594 42.949219 471.28125 41.914062 474.398438 45.035156 C 475.757812 46.394531 475.757812 46.621094 474.371094 48.734375 C 468.71875 57.363281 425.667969 75.964844 370.019531 93.820312 C 359.398438 97.230469 350.425781 100.179688 350.082031 100.378906 C 349.089844 100.945312 354.589844 110.257812 357.601562 113.101562 C 364.15625 119.292969 365.890625 128.777344 361.996094 137.132812 C 360.894531 139.492188 359.351562 141.953125 358.570312 142.601562 C 357.035156 143.867188 356.5 151.292969 357.941406 151.292969 C 358.378906 151.292969 372.957031 149.523438 390.339844 147.359375 C 411.824219 144.6875 423.636719 143.574219 427.234375 143.886719 C 436.964844 144.734375 445.019531 150.109375 449.6875 158.871094 C 452.273438 163.71875 452.621094 165.542969 455.921875 191.335938 C 458.277344 209.730469 459.25 220.167969 458.898438 223.261719 C 457.6875 234.019531 449.355469 244.210938 439.273438 247.269531 C 436.257812 248.1875 417.359375 250.886719 395.554688 253.511719 L 357.148438 258.140625 L 357.144531 263.101562 C 357.140625 267.714844 357.476562 268.546875 361.929688 275.046875 C 371.128906 288.484375 377.730469 303.980469 381.34375 320.632812 C 384.054688 333.109375 384.042969 356.363281 381.324219 369.015625 C 379.1875 378.976562 375.277344 390.578125 371.609375 397.847656 C 370.117188 400.808594 369.375 403.265625 369.777344 403.941406 C 370.144531 404.5625 377.011719 412.488281 385.035156 421.554688 C 393.0625 430.617188 400.59375 439.65625 401.773438 441.636719 C 406.058594 448.828125 403.734375 460.050781 396.921875 465.054688 C 391.09375 469.335938 381.960938 469.90625 375.957031 466.363281 C 374.296875 465.382812 366.847656 457.636719 359.402344 449.144531 L 345.867188 433.710938 L 338.417969 439.75 C 300.902344 470.164062 251.785156 476.222656 207.859375 455.847656 C 199.199219 451.832031 186.136719 443.246094 179.164062 436.984375 L 174.113281 432.453125 L 171.960938 434.984375 C 156.363281 453.300781 144.53125 465.773438 141.40625 467.191406 C 137.136719 469.132812 130.398438 469.253906 126.28125 467.46875 Z M 103.207031 268.28125 C 72.851562 264.476562 57.699219 262.226562 54.589844 261.0625 C 45.414062 257.628906 37.804688 247.761719 36.605469 237.742188 C 36.117188 233.636719 39.492188 201.8125 42.269531 184.332031 C 44.035156 173.230469 49.453125 165.378906 58.609375 160.640625 C 65.605469 157.019531 71.296875 157.371094 135.292969 165.332031 C 175.929688 170.390625 194.886719 173.085938 197.722656 174.199219 C 206.429688 177.632812 213.628906 186.3125 215.589844 195.742188 C 216.328125 199.296875 216.238281 202.566406 215.175781 210.796875 C 214.429688 216.578125 213.820312 221.554688 213.820312 221.851562 C 213.820312 222.148438 209.824219 224.300781 204.9375 226.636719 C 184.335938 236.476562 165.371094 252.40625 153.613281 269.738281 C 151.699219 272.5625 150.167969 273.949219 149.023438 273.894531 C 148.082031 273.851562 127.460938 271.324219 103.207031 268.28125 Z M 103.207031 268.28125 "/>
</g>
</svg>
